<svg xmlns="http://www.w3.org/2000/svg" width="60" height="60" viewBox="0 0 60 60">
    <g fill="none" fill-rule="nonzero">
        <path fill="#C3EFEA" d="M58.696 9.13v36.522a2.616 2.616 0 0 1-2.609 2.609H3.913a2.616 2.616 0 0 1-2.609-2.609V9.13a2.616 2.616 0 0 1 2.609-2.608h15.652v3.913c0 .717.587 1.304 1.305 1.304h18.26c.718 0 1.305-.587 1.305-1.304V6.522h15.652a2.616 2.616 0 0 1 2.609 2.608z"/>
        <g fill="#37CAB9">
            <path d="M56.087 5.217H41.739V2.61A2.611 2.611 0 0 0 39.13 0H20.87a2.611 2.611 0 0 0-2.61 2.609v2.608H3.914A3.918 3.918 0 0 0 0 9.13v36.522a3.918 3.918 0 0 0 3.913 3.913h19.565v7.826h-3.913a1.305 1.305 0 0 0 0 2.609h20.87a1.304 1.304 0 1 0 0-2.609h-3.913v-7.826h19.565A3.918 3.918 0 0 0 60 45.652V9.13a3.918 3.918 0 0 0-3.913-3.913zM20.87 2.61h18.26v7.826H20.87V2.609zM33.913 57.39h-7.826v-7.826h7.826v7.826zm23.478-11.739c0 .719-.584 1.305-1.304 1.305H3.913a1.306 1.306 0 0 1-1.304-1.305V9.13c0-.718.585-1.304 1.304-1.304h14.348v2.609a2.611 2.611 0 0 0 2.609 2.608h18.26a2.611 2.611 0 0 0 2.61-2.608V7.826h14.347c.72 0 1.304.586 1.304 1.304v36.522z"/>
            <path d="M50.87 39.13h-3.913V19.565a1.304 1.304 0 1 0-2.61 0V39.13H39.13V22.174a1.304 1.304 0 1 0-2.608 0V39.13h-5.218V24.783a1.305 1.305 0 0 0-2.608 0V39.13h-5.218V27.391a1.305 1.305 0 0 0-2.608 0v11.74h-5.218v-7.827a1.305 1.305 0 0 0-2.609 0v7.826H9.13a1.305 1.305 0 0 0 0 2.61h41.74a1.304 1.304 0 1 0 0-2.61z"/>
        </g>
    </g>
</svg>
