<?xml version="1.0" encoding="UTF-8"?>
<svg width="150px" height="40px" viewBox="0 0 150 40" version="1.1" xmlns="http://www.w3.org/2000/svg" xmlns:xlink="http://www.w3.org/1999/xlink">
    <!-- Generator: sketchtool 50.2 (55047) - http://www.bohemiancoding.com/sketch -->
    <title>A245E3AF-594B-4A81-B7E9-AD4507528FF7</title>
    <desc>Created with sketchtool.</desc>
    <defs></defs>
    <g id="Symbols" stroke="none" stroke-width="1" fill="none" fill-rule="evenodd">
        <g id="Component-/-Baskets-logo" fill-rule="nonzero">
            <g>
                <path d="M28.1473629,7.09534368 L53.9491121,7.09534368 L57.4675325,15.0776054 L53.9491121,21.8773097 L57.4675325,31.0421286 L53.9491121,39.0243902 L37.5298171,39.0243902 L39.2890273,33.7028824 L51.0170951,33.7028824 L52.189902,31.0421286 L48.6714816,21.8773097 L52.189902,15.0776054 L51.0170951,12.4168514 L29.906573,12.4168514 L28.1473629,7.09534368 Z M0,7.09534368 L19.3513119,7.09534368 L17.0056984,0 L22.2833289,0 L26.3881526,12.4168514 L7.38868275,12.4168514 L8.09236682,14.1906873 L10.5552611,14.1906873 L17.9271894,33.7028824 L26.9745561,33.7028824 L25.2153459,39.0243902 L14.6600848,39.0243902 L7.06476469,18.9209165 L4.69122714,18.9209165 L0,7.09534368 Z M36.3570103,15.9645233 L41.6346409,15.9645233 L34.0113967,39.0243902 L28.7337662,39.0243902 L36.3570103,15.9645233 Z" id="Combined-Shape" fill="#2C2C2F"></path>
                <path d="M71.6025974,36.32 L73.0168831,36.32 L73.0168831,26.7043902 L71.6025974,26.7043902 L71.6025974,24 L78.1811688,24 C78.8954581,24 79.5275946,24.1001616 80.0775974,24.3004878 C80.6276002,24.500814 81.0918812,24.7726812 81.4704545,25.1160976 C81.8490279,25.459514 82.1347393,25.8708919 82.3275974,26.3502439 C82.5204555,26.8295959 82.6168831,27.3482899 82.6168831,27.9063415 L82.6168831,28.1639024 C82.6168831,29.0224433 82.3775998,29.7092658 81.899026,30.2243902 C81.4204521,30.7395147 80.8168867,31.0972347 80.0883117,31.297561 L80.0883117,31.6839024 C80.8168867,31.8842287 81.4204521,32.2455259 81.899026,32.7678049 C82.3775998,33.2900839 82.6168831,33.9804835 82.6168831,34.8390244 L82.6168831,35.0965854 C82.6168831,35.654637 82.5204555,36.1733309 82.3275974,36.6526829 C82.1347393,37.1320349 81.8490279,37.5469901 81.4704545,37.897561 C81.0918812,38.2481318 80.6276002,38.5235762 80.0775974,38.7239024 C79.5275946,38.9242287 78.8954581,39.0243902 78.1811688,39.0243902 L71.6025974,39.0243902 L71.6025974,36.32 Z M75.8454545,36.32 L77.9025974,36.32 C78.5026004,36.32 78.9883099,36.1912208 79.3597403,35.9336585 C79.7311706,35.6760963 79.9168831,35.2468323 79.9168831,34.6458537 L79.9168831,34.5170732 C79.9168831,33.9160945 79.7311706,33.4868305 79.3597403,33.2292683 C78.9883099,32.971706 78.5026004,32.8429268 77.9025974,32.8429268 L75.8454545,32.8429268 L75.8454545,36.32 Z M75.8454545,30.1385366 L77.9025974,30.1385366 C78.5026004,30.1385366 78.9883099,30.0133345 79.3597403,29.7629268 C79.7311706,29.5125191 79.9168831,29.0868323 79.9168831,28.4858537 L79.9168831,28.3570732 C79.9168831,27.7560945 79.7311706,27.3304077 79.3597403,27.08 C78.9883099,26.8295923 78.5026004,26.7043902 77.9025974,26.7043902 L75.8454545,26.7043902 L75.8454545,30.1385366 Z M91.5158629,37.4790244 C91.2301472,38.1515481 90.8301511,38.6273157 90.3158629,38.9063415 C89.8015745,39.1853672 89.2015806,39.324878 88.5158629,39.324878 C87.8730025,39.324878 87.2694371,39.2032533 86.7051486,38.96 C86.14086,38.7167467 85.6444365,38.3590267 85.2158629,37.8868293 C84.7872893,37.4146318 84.4480069,36.8422798 84.1980057,36.1697561 C83.9480044,35.4972324 83.8230057,34.7317116 83.8230057,33.8731707 L83.8230057,33.5297561 C83.8230057,32.6855242 83.9444331,31.9271579 84.1872915,31.2546341 C84.4301497,30.5821104 84.7587179,30.0097584 85.1730057,29.537561 C85.5872935,29.0653635 86.0694316,28.7040662 86.6194343,28.4536585 C87.169437,28.2032508 87.7587169,28.0780488 88.3872915,28.0780488 C89.1444381,28.0780488 89.7551462,28.206828 90.2194343,28.4643902 C90.6837223,28.7219525 91.0515758,29.1225989 91.3230057,29.6663415 L91.70872,29.6663415 L91.70872,28.3785366 L94.40872,28.3785366 L94.40872,35.804878 C94.40872,36.2341485 94.6015752,36.4487805 94.9872915,36.4487805 L95.3944343,36.4487805 L95.3944343,39.0243902 L93.5515772,39.0243902 C93.0658604,39.0243902 92.6694358,38.8813022 92.3622915,38.595122 C92.055147,38.3089417 91.9015772,37.9369129 91.9015772,37.4790244 L91.5158629,37.4790244 Z M89.1158629,36.7492683 C89.9015811,36.7492683 90.5301462,36.4881327 91.0015772,35.9658537 C91.4730081,35.4435746 91.70872,34.7317118 91.70872,33.8302439 L91.70872,33.5726829 C91.70872,32.671215 91.4730081,31.9593522 91.0015772,31.4370732 C90.5301462,30.9147941 89.9015811,30.6536585 89.1158629,30.6536585 C88.3301447,30.6536585 87.7015795,30.9147941 87.2301486,31.4370732 C86.7587176,31.9593522 86.5230057,32.671215 86.5230057,33.5726829 L86.5230057,33.8302439 C86.5230057,34.7317118 86.7587176,35.4435746 87.2301486,35.9658537 C87.7015795,36.4881327 88.3301447,36.7492683 89.1158629,36.7492683 Z M100.075603,31.3834146 C100.075603,31.726831 100.254172,31.9736578 100.611318,32.1239024 C100.968462,32.2741471 101.618456,32.3993491 102.561318,32.4995122 C103.647037,32.6139843 104.532742,32.9395095 105.21846,33.4760976 C105.904178,34.0126856 106.247032,34.7603204 106.247032,35.7190244 L106.247032,35.8478049 C106.247032,36.906672 105.861321,37.7508911 105.089889,38.3804878 C104.318456,39.0100845 103.232753,39.324878 101.832746,39.324878 C101.00417,39.324878 100.297034,39.217562 99.7113175,39.0029268 C99.1256006,38.7882916 98.6398909,38.5200016 98.2541747,38.1980488 C97.8684584,37.8760959 97.5720331,37.518376 97.3648889,37.124878 C97.1577449,36.7313801 97.0184606,36.3486197 96.9470317,35.9765854 L99.4327461,35.1609756 C99.5470325,35.6188641 99.7863156,36.0195104 100.150603,36.3629268 C100.514891,36.7063432 101.0756,36.8780488 101.832746,36.8780488 C102.504178,36.8780488 102.964888,36.77431 103.214889,36.5668293 C103.46489,36.3593486 103.589889,36.133985 103.589889,35.8907317 C103.589889,35.7476416 103.557746,35.6152852 103.49346,35.4936585 C103.429175,35.3720319 103.311319,35.2575615 103.139889,35.1502439 C102.968459,35.0429263 102.736319,34.9534963 102.44346,34.8819512 C102.150602,34.8104061 101.782748,34.7531709 101.339889,34.7102439 C100.139883,34.6100808 99.1863205,34.2988644 98.4791747,33.7765854 C97.7720279,33.2543063 97.4184604,32.4852083 97.4184604,31.4692683 L97.4184604,31.3404878 C97.4184604,30.8110542 97.5327448,30.3460182 97.7613175,29.9453659 C97.9898903,29.5447135 98.2898873,29.2048794 98.6613175,28.9258537 C99.0327477,28.6468279 99.4613153,28.4357731 99.9470318,28.2926829 C100.432748,28.1495928 100.932743,28.0780488 101.447032,28.0780488 C102.118464,28.0780488 102.7006,28.1603244 103.19346,28.324878 C103.686319,28.4894317 104.104173,28.7040637 104.447032,28.9687805 C104.789891,29.2334973 105.068459,29.5268276 105.282746,29.8487805 C105.497033,30.1707333 105.661317,30.4819498 105.775603,30.782439 L103.332746,31.7697561 C103.204174,31.3834127 102.982747,31.0793507 102.66846,30.857561 C102.354173,30.6357712 101.947034,30.524878 101.447032,30.524878 C100.989886,30.524878 100.647033,30.6071537 100.41846,30.7717073 C100.189888,30.936261 100.075603,31.1401614 100.075603,31.3834146 Z M110.546382,32.284878 L111.060668,32.284878 L113.88924,28.3785366 L116.846382,28.3785366 L116.846382,28.5073171 L113.417811,33.3795122 L113.417811,33.7658537 L117.18924,38.8956098 L117.18924,39.0243902 L114.103525,39.0243902 L111.060668,34.8604878 L110.546382,34.8604878 L110.546382,39.0243902 L107.846382,39.0243902 L107.846382,24 L110.546382,24 L110.546382,32.284878 Z M120.056772,34.5814634 C120.071058,34.8962618 120.146057,35.1860149 120.281772,35.4507317 C120.417487,35.7154485 120.6032,35.9443893 120.838915,36.137561 C121.07463,36.3307327 121.346056,36.480975 121.653201,36.5882927 C121.960345,36.6956103 122.285342,36.7492683 122.628201,36.7492683 C123.299633,36.7492683 123.813913,36.6312207 124.171058,36.395122 C124.528202,36.1590232 124.785343,35.8764244 124.942486,35.5473171 L127.256772,36.835122 C127.1282,37.1069933 126.949631,37.389592 126.721058,37.6829268 C126.492485,37.9762617 126.19606,38.2445516 125.831772,38.4878049 C125.467484,38.7310581 125.024632,38.9313814 124.503201,39.0887805 C123.981769,39.2461796 123.371061,39.324878 122.671058,39.324878 C121.871053,39.324878 121.14249,39.1960988 120.485344,38.9385366 C119.828197,38.6809743 119.260346,38.3089456 118.781772,37.822439 C118.303198,37.3359325 117.931774,36.7421174 117.667486,36.0409756 C117.403199,35.3398339 117.271058,34.5456955 117.271058,33.6585366 L117.271058,33.5297561 C117.271058,32.7141422 117.410342,31.9700847 117.688915,31.297561 C117.967487,30.6250373 118.349627,30.0526853 118.835344,29.5804878 C119.32106,29.1082903 119.888911,28.7398387 120.538915,28.475122 C121.188919,28.2104052 121.885339,28.0780488 122.628201,28.0780488 C123.542491,28.0780488 124.328197,28.2390228 124.985344,28.5609756 C125.64249,28.8829285 126.185342,29.2907293 126.613915,29.7843902 C127.042488,30.2780512 127.35677,30.8217857 127.556772,31.4156098 C127.756773,32.0094339 127.856772,32.585363 127.856772,33.1434146 L127.856772,34.5814634 L120.056772,34.5814634 Z M122.606772,30.524878 C121.921054,30.524878 121.363917,30.7001609 120.935344,31.0507317 C120.50677,31.4013025 120.228202,31.8055261 120.099629,32.2634146 L125.113915,32.2634146 C125.0282,31.7625991 124.760345,31.3476439 124.310344,31.0185366 C123.860342,30.6894293 123.292489,30.524878 122.606772,30.524878 Z M128.74898,28.3785366 L131.89898,28.3785366 L131.89898,24 L134.59898,24 L134.59898,28.3785366 L138.434694,28.3785366 L138.434694,30.9541463 L134.59898,30.9541463 L134.59898,35.804878 C134.59898,36.2341485 134.791835,36.4487805 135.177551,36.4487805 L138.04898,36.4487805 L138.04898,39.0243902 L133.54898,39.0243902 C133.063263,39.0243902 132.666839,38.8669935 132.359694,38.5521951 C132.05255,38.2373968 131.89898,37.8367504 131.89898,37.3502439 L131.89898,30.9541463 L128.74898,30.9541463 L128.74898,28.3785366 Z M142.92885,31.3834146 C142.92885,31.726831 143.107419,31.9736578 143.464564,32.1239024 C143.821708,32.2741471 144.471702,32.3993491 145.414564,32.4995122 C146.500284,32.6139843 147.385989,32.9395095 148.071707,33.4760976 C148.757424,34.0126856 149.100279,34.7603204 149.100279,35.7190244 L149.100279,35.8478049 C149.100279,36.906672 148.714568,37.7508911 147.943136,38.3804878 C147.171703,39.0100845 146.085999,39.324878 144.685993,39.324878 C143.857417,39.324878 143.150281,39.217562 142.564564,39.0029268 C141.978847,38.7882916 141.493138,38.5200016 141.107421,38.1980488 C140.721705,37.8760959 140.42528,37.518376 140.218136,37.124878 C140.010992,36.7313801 139.871708,36.3486197 139.800279,35.9765854 L142.285993,35.1609756 C142.400279,35.6188641 142.639562,36.0195104 143.00385,36.3629268 C143.368138,36.7063432 143.928846,36.8780488 144.685993,36.8780488 C145.357425,36.8780488 145.818134,36.77431 146.068136,36.5668293 C146.318137,36.3593486 146.443136,36.133985 146.443136,35.8907317 C146.443136,35.7476416 146.410993,35.6152852 146.346707,35.4936585 C146.282421,35.3720319 146.164565,35.2575615 145.993136,35.1502439 C145.821706,35.0429263 145.589566,34.9534963 145.296707,34.8819512 C145.003849,34.8104061 144.635995,34.7531709 144.193136,34.7102439 C142.99313,34.6100808 142.039567,34.2988644 141.332421,33.7765854 C140.625275,33.2543063 140.271707,32.4852083 140.271707,31.4692683 L140.271707,31.3404878 C140.271707,30.8110542 140.385992,30.3460182 140.614564,29.9453659 C140.843137,29.5447135 141.143134,29.2048794 141.514564,28.9258537 C141.885994,28.6468279 142.314562,28.4357731 142.800279,28.2926829 C143.285995,28.1495928 143.78599,28.0780488 144.300279,28.0780488 C144.971711,28.0780488 145.553847,28.1603244 146.046707,28.324878 C146.539566,28.4894317 146.957419,28.7040637 147.300279,28.9687805 C147.643138,29.2334973 147.921706,29.5268276 148.135993,29.8487805 C148.35028,30.1707333 148.514564,30.4819498 148.62885,30.782439 L146.185993,31.7697561 C146.05742,31.3834127 145.835994,31.0793507 145.521707,30.857561 C145.20742,30.6357712 144.800281,30.524878 144.300279,30.524878 C143.843133,30.524878 143.50028,30.6071537 143.271707,30.7717073 C143.043134,30.936261 142.92885,31.1401614 142.92885,31.3834146 Z" id="Baskets" fill="#58585F"></path>
                <path d="M69.9116883,19.1882927 C70.4545481,19.1882927 70.9009723,19.1060171 71.250974,18.9414634 C71.6009757,18.7769098 71.8724016,18.5551233 72.0652597,18.2760976 C72.2581179,17.9970718 72.3902594,17.6751238 72.4616883,17.3102439 C72.5331172,16.945364 72.5688312,16.569758 72.5688312,16.1834146 L72.5688312,15.7970732 L75.3974026,15.7970732 L75.3974026,16.1834146 C75.3974026,17.9720415 74.9295502,19.3492635 73.9938312,20.315122 C73.0581122,21.2809804 71.6974115,21.7639024 69.9116883,21.7639024 C68.197394,21.7639024 66.8402647,21.2416312 65.8402597,20.1970732 C64.8402547,19.1525151 64.3402597,17.6286279 64.3402597,15.6253659 L64.3402597,12.2770732 C64.3402597,11.3183692 64.4688299,10.456264 64.725974,9.69073171 C64.9831181,8.92519942 65.354543,8.28130342 65.8402597,7.75902439 C66.3259765,7.23674536 66.9116849,6.83609896 67.5974026,6.55707317 C68.2831203,6.27804739 69.0545412,6.13853659 69.9116883,6.13853659 C70.797407,6.13853659 71.5831135,6.26731579 72.2688312,6.52487805 C72.9545489,6.78244031 73.5295432,7.15446911 73.9938312,7.64097561 C74.4581192,8.12748211 74.8081157,8.71414291 75.0438312,9.40097561 C75.2795466,10.0878083 75.3974026,10.8604835 75.3974026,11.7190244 L75.3974026,12.1053659 L72.5688312,12.1053659 L72.5688312,11.7190244 C72.5688312,11.361299 72.5259744,11.003579 72.4402597,10.6458537 C72.3545451,10.2881283 72.2116894,9.96618029 72.0116883,9.68 C71.8116873,9.39381971 71.5402615,9.16130171 71.1974026,8.98243902 C70.8545437,8.80357634 70.4259766,8.71414634 69.9116883,8.71414634 C69.4402574,8.71414634 69.0331186,8.80357634 68.6902597,8.98243902 C68.3474008,9.16130171 68.0616894,9.40455131 67.8331169,9.71219512 C67.6045444,10.0198389 67.4366888,10.3775589 67.3295455,10.7853659 C67.2224021,11.1931728 67.1688312,11.6188596 67.1688312,12.062439 L67.1688312,15.84 C67.1688312,16.3265065 67.2188306,16.7736565 67.3188312,17.1814634 C67.4188317,17.5892703 67.575973,17.9434132 67.7902597,18.2439024 C68.0045465,18.5443917 68.2866866,18.7769098 68.6366883,18.9414634 C68.98669,19.1060171 69.4116858,19.1882927 69.9116883,19.1882927 Z M76.6902598,10.817561 L81.1902598,10.817561 L81.1902598,12.3629268 L81.5759741,12.3629268 C81.775975,11.7762573 82.1152574,11.3219529 82.5938312,11 C83.0724051,10.6780472 83.6473993,10.5170732 84.3188312,10.5170732 C85.3759793,10.5170732 86.2259709,10.8497528 86.8688312,11.515122 C87.5116916,12.1804911 87.8331169,13.1928387 87.8331169,14.5521951 L87.8331169,15.0243902 L85.0474027,15.2819512 L85.0474027,14.9814634 C85.0474027,14.3947939 84.8974041,13.9261806 84.5974027,13.5756098 C84.2974011,13.2250389 83.8474057,13.0497561 83.2474027,13.0497561 C82.6473996,13.0497561 82.1759757,13.2572337 81.8331169,13.6721951 C81.4902581,14.0871566 81.3188312,14.6809717 81.3188312,15.4536585 L81.3188312,18.8878049 L83.7616884,18.8878049 L83.7616884,21.4634146 L76.4331169,21.4634146 L76.4331169,18.8878049 L78.6188312,18.8878049 L78.6188312,13.3931707 L76.6902598,13.3931707 L76.6902598,10.817561 Z M96.6259741,10.817561 L99.3259744,10.817561 L99.3259744,24.0819512 C99.3259744,24.5684578 99.1724045,24.9691041 98.8652601,25.2839024 C98.5581156,25.5987008 98.1616909,25.7560976 97.6759744,25.7560976 L91.3545455,25.7560976 L91.3545455,23.1804878 L96.0474026,23.1804878 C96.4331189,23.1804878 96.6259741,22.9658558 96.6259741,22.5365854 L96.6259741,19.9180488 L96.2402598,19.9180488 C95.7688289,21.148624 94.7545533,21.7639024 93.1974026,21.7639024 C92.6688286,21.7639024 92.1759764,21.6780497 91.7188312,21.5063415 C91.2616861,21.3346333 90.8616901,21.0699205 90.5188312,20.7121951 C90.1759724,20.3544698 89.9081179,19.9073198 89.7152598,19.3707317 C89.5224018,18.8341436 89.4259741,18.2009792 89.4259741,17.4712195 L89.4259741,10.817561 L92.1259741,10.817561 L92.1259741,16.9131707 C92.1259741,17.6715485 92.3045437,18.2617865 92.6616883,18.6839024 C93.018833,19.1060183 93.5545419,19.3170732 94.2688312,19.3170732 C95.083121,19.3170732 95.6795436,19.0559376 96.0581169,18.5336585 C96.4366903,18.0113795 96.6259741,17.2995167 96.6259741,16.3980488 L96.6259741,10.817561 Z M104.274026,25.7560976 L101.574026,25.7560976 L101.574026,10.817561 L104.274026,10.817561 L104.274026,12.3629268 L104.659741,12.3629268 C104.945456,11.7762573 105.359738,11.3219529 105.902598,11 C106.445457,10.6780472 107.138307,10.5170732 107.981169,10.5170732 C108.609743,10.5170732 109.206167,10.638698 109.770455,10.8819512 C110.334743,11.1252045 110.827595,11.4793473 111.249026,11.9443902 C111.670457,12.4094333 112.006168,12.978208 112.256169,13.6507317 C112.50617,14.3232554 112.631169,15.0887762 112.631169,15.9473171 L112.631169,16.3336585 C112.631169,17.2065084 112.509741,17.9791836 112.266883,18.6517073 C112.024025,19.324231 111.695456,19.8930058 111.281169,20.3580488 C110.866881,20.8230917 110.3776,21.1736574 109.813312,21.4097561 C109.249024,21.6458548 108.638315,21.7639024 107.981169,21.7639024 C107.495453,21.7639024 107.074028,21.7138217 106.716883,21.6136585 C106.359738,21.5134954 106.049027,21.3775619 105.784741,21.2058537 C105.520453,21.0341455 105.299027,20.8373995 105.120455,20.6156098 C104.941882,20.39382 104.788312,20.161302 104.659741,19.9180488 L104.274026,19.9180488 L104.274026,25.7560976 Z M107.102598,19.1882927 C107.945458,19.1882927 108.627595,18.9271571 109.149026,18.404878 C109.670457,17.882599 109.931169,17.1707362 109.931169,16.2692683 L109.931169,16.0117073 C109.931169,15.1102394 109.670457,14.3983766 109.149026,13.8760976 C108.627595,13.3538185 107.945458,13.0926829 107.102598,13.0926829 C106.259736,13.0926829 105.5776,13.360973 105.056169,13.897561 C104.534738,14.4341491 104.274026,15.1388575 104.274026,16.0117073 L104.274026,16.2692683 C104.274026,17.1421181 104.534738,17.8468265 105.056169,18.3834146 C105.5776,18.9200027 106.259736,19.1882927 107.102598,19.1882927 Z M113.562338,10.817561 L116.712338,10.817561 L116.712338,6.43902439 L119.412338,6.43902439 L119.412338,10.817561 L123.248052,10.817561 L123.248052,13.3931707 L119.412338,13.3931707 L119.412338,18.2439024 C119.412338,18.6731729 119.605193,18.8878049 119.990909,18.8878049 L122.862338,18.8878049 L122.862338,21.4634146 L118.362338,21.4634146 C117.876621,21.4634146 117.480197,21.3060179 117.173052,20.9912195 C116.865908,20.6764212 116.712338,20.2757748 116.712338,19.7892683 L116.712338,13.3931707 L113.562338,13.3931707 L113.562338,10.817561 Z M135.52078,16.2692683 C135.52078,17.1564272 135.370781,17.939834 135.07078,18.6195122 C134.770778,19.2991904 134.363639,19.8715424 133.849351,20.3365854 C133.335062,20.8016284 132.745782,21.1557711 132.081494,21.3990244 C131.417204,21.6422777 130.720782,21.7639024 129.992208,21.7639024 C129.263633,21.7639024 128.567211,21.6422777 127.902922,21.3990244 C127.238633,21.1557711 126.649353,20.8016284 126.135065,20.3365854 C125.620777,19.8715424 125.213638,19.2991904 124.913637,18.6195122 C124.613635,17.939834 124.463637,17.1564272 124.463637,16.2692683 L124.463637,16.0117073 C124.463637,15.1388575 124.613635,14.3626051 124.913637,13.6829268 C125.213638,13.0032487 125.620777,12.4273194 126.135065,11.955122 C126.649353,11.4829245 127.238633,11.1252045 127.902922,10.8819512 C128.567211,10.638698 129.263633,10.5170732 129.992208,10.5170732 C130.720782,10.5170732 131.417204,10.638698 132.081494,10.8819512 C132.745782,11.1252045 133.335062,11.4829245 133.849351,11.955122 C134.363639,12.4273194 134.770778,13.0032487 135.07078,13.6829268 C135.370781,14.3626051 135.52078,15.1388575 135.52078,16.0117073 L135.52078,16.2692683 Z M129.992208,19.1882927 C130.377924,19.1882927 130.742206,19.1239031 131.085065,18.995122 C131.427924,18.8663408 131.72792,18.6803264 131.985065,18.4370732 C132.242209,18.1938199 132.445779,17.8969123 132.59578,17.5463415 C132.745781,17.1957706 132.82078,16.7987014 132.82078,16.355122 L132.82078,15.9258537 C132.82078,15.4822742 132.745781,15.085205 132.59578,14.7346341 C132.445779,14.3840633 132.242209,14.0871557 131.985065,13.8439024 C131.72792,13.6006492 131.427924,13.4146348 131.085065,13.2858537 C130.742206,13.1570725 130.377924,13.0926829 129.992208,13.0926829 C129.606492,13.0926829 129.24221,13.1570725 128.899351,13.2858537 C128.556492,13.4146348 128.256495,13.6006492 127.999351,13.8439024 C127.742206,14.0871557 127.538638,14.3840633 127.388637,14.7346341 C127.238636,15.085205 127.163637,15.4822742 127.163637,15.9258537 L127.163637,16.355122 C127.163637,16.7987014 127.238636,17.1957706 127.388637,17.5463415 C127.538638,17.8969123 127.742206,18.1938199 127.999351,18.4370732 C128.256495,18.6803264 128.556492,18.8663408 128.899351,18.995122 C129.24221,19.1239031 129.606492,19.1882927 129.992208,19.1882927 Z" id="Crypto" fill="#58585F"></path>
            </g>
        </g>
    </g>
</svg>