<svg xmlns="http://www.w3.org/2000/svg" width="60" height="50" viewBox="0 0 60 50">
    <g fill="none" fill-rule="nonzero">
        <g fill="#BEC2E3">
            <path d="M37.826 40.79v5.263c0 1.447-1.174 2.631-2.609 2.631H9.13v-15.79h26.087c1.435 0 2.61 1.185 2.61 2.632v5.263zM37.826 9.21v5.264c0 1.447-1.174 2.631-2.609 2.631H9.13V1.315h26.087c1.435 0 2.61 1.185 2.61 2.632v5.264z"/>
        </g>
        <g fill="#3E46AD">
            <path d="M30 7.895H16.957c-.72 0-1.305.59-1.305 1.316a1.31 1.31 0 0 0 1.305 1.315H30c.72 0 1.304-.59 1.304-1.315A1.31 1.31 0 0 0 30 7.895zM30 23.684H16.957c-.72 0-1.305.59-1.305 1.316a1.31 1.31 0 0 0 1.305 1.316H30c.72 0 1.304-.59 1.304-1.316A1.31 1.31 0 0 0 30 23.684zM30 39.474H16.957c-.72 0-1.305.59-1.305 1.315a1.31 1.31 0 0 0 1.305 1.316H30c.72 0 1.304-.59 1.304-1.316A1.31 1.31 0 0 0 30 39.474z"/>
            <path d="M56.087 7.895H39.13V3.947C39.13 1.771 37.375 0 35.217 0H3.913C1.756 0 0 1.771 0 3.947v10.527c0 1.014.393 1.931 1.017 2.631A3.941 3.941 0 0 0 0 19.737v10.526c0 1.015.393 1.932 1.017 2.632A3.941 3.941 0 0 0 0 35.526v10.527C0 48.229 1.756 50 3.913 50h31.304c2.158 0 3.913-1.771 3.913-3.947v-3.948h16.957c2.157 0 3.913-1.77 3.913-3.947V11.842c0-2.176-1.756-3.947-3.913-3.947zM7.827 47.368H3.912c-.719 0-1.304-.59-1.304-1.315V35.526c0-.725.585-1.315 1.304-1.315h3.913v13.157zm0-15.79H3.912c-.719 0-1.304-.59-1.304-1.315V19.737c0-.725.585-1.316 1.304-1.316h3.913V31.58zm0-15.789H3.912c-.719 0-1.304-.59-1.304-1.315V3.947c0-.725.585-1.315 1.304-1.315h3.913v13.157zm28.695 30.264c0 .725-.585 1.315-1.305 1.315H10.435V34.211h24.782c.72 0 1.305.59 1.305 1.315v10.527zm0-15.79c0 .725-.585 1.316-1.305 1.316H10.435V18.42h24.782c.72 0 1.305.59 1.305 1.316v10.526zm0-15.79c0 .726-.585 1.316-1.305 1.316H10.435V2.632h24.782c.72 0 1.305.59 1.305 1.315v10.527zm20.87 23.685c0 .725-.585 1.316-1.305 1.316H39.13v-3.948a3.941 3.941 0 0 0-1.017-2.631 3.935 3.935 0 0 0 1.017-2.632v-3.947h18.261v11.842zm0-14.474H39.13v-3.947a3.941 3.941 0 0 0-1.017-2.632 3.935 3.935 0 0 0 1.017-2.631v-3.948h16.957c.72 0 1.304.591 1.304 1.316v11.842z"/>
        </g>
    </g>
</svg>
