<svg xmlns="http://www.w3.org/2000/svg" width="60" height="60" viewBox="0 0 60 60">
    <g fill="none" fill-rule="nonzero">
        <path class="svg_fill_light" d="M29.919 49.544v1.304h-7.805V14.326l7.805 3.913z"/>
        <g class="svg_fill_dark">
            <path d="M39.004 14.175a1.258 1.258 0 0 0-.099-.364c-.01-.022-.008-.046-.018-.068-.007-.012-.017-.018-.024-.03-.01-.018-.014-.039-.024-.057L34.156 5.83 31.034.612c-.47-.786-1.761-.786-2.231 0L25.68 5.83l-4.683 7.826c-.01.018-.014.039-.025.057-.006.012-.018.018-.023.03-.01.022-.01.046-.018.068-.051.116-.084.237-.1.364-.003.035-.012.068-.013.103 0 .016-.006.031-.006.048v41.74a3.913 3.913 0 0 0 3.903 3.912h10.406a3.913 3.913 0 0 0 3.903-3.913V14.326c0-.017-.007-.032-.007-.048-.001-.035-.01-.068-.014-.103zM29.919 3.818l.825 1.378h-1.648l.823-1.378zm-2.384 3.986h4.77l3.58 5.985-5.966 2.992-5.967-2.99 3.583-5.987zm-4.12 8.633l5.203 2.608v30.499h-5.203V16.437zm13.008 39.628c0 .719-.584 1.305-1.3 1.305H24.715c-.717 0-1.301-.586-1.301-1.305v-3.913h13.008v3.913zm0-6.521H31.22V19.045l5.203-2.608v33.107zM15.61 7.804H9.106a3.913 3.913 0 0 0-3.902 3.913v12.504L.38 29.056a1.305 1.305 0 0 0 0 1.844l4.823 4.836v12.503a3.913 3.913 0 0 0 3.902 3.913h5.203c.718 0 1.301-.584 1.301-1.304 0-.72-.583-1.304-1.3-1.304H9.105c-.717 0-1.3-.586-1.3-1.305V35.196c0-.346-.137-.679-.382-.922L3.14 29.978l4.284-4.295c.245-.244.381-.576.381-.922V11.717c0-.718.584-1.304 1.301-1.304h6.504c.718 0 1.3-.584 1.3-1.304 0-.72-.582-1.305-1.3-1.305zM54.634 24.22V11.718a3.913 3.913 0 0 0-3.902-3.913h-6.504c-.718 0-1.3.585-1.3 1.305s.582 1.304 1.3 1.304h6.504c.717 0 1.3.586 1.3 1.304v13.044c0 .346.137.678.382.922l4.284 4.295-4.284 4.296a1.303 1.303 0 0 0-.381.922v13.043c0 .719-.584 1.305-1.301 1.305h-5.203c-.718 0-1.301.584-1.301 1.304 0 .72.583 1.304 1.3 1.304h5.204a3.913 3.913 0 0 0 3.902-3.913V35.736l4.823-4.836a1.305 1.305 0 0 0 0-1.844l-4.823-4.835z"/>
        </g>
    </g>
</svg>
