<svg xmlns="http://www.w3.org/2000/svg" width="16" height="14" viewBox="0 0 16 14">
    <g fill="none" fill-rule="evenodd">
        <path d="M-7-8h30v30H-7z"/>
        <path fill="#FFF" d="M15.84 1.73l-2.39 11.18c-.095.399-.253.65-.475.756-.223.105-.498.064-.827-.123l-3.62-2.672L6.77 12.56c-.118.117-.211.199-.282.246a.88.88 0 0 1-.457.105l.281-3.691 6.715-6.082c.094-.07.123-.135.088-.194-.035-.058-.105-.082-.21-.07a.835.835 0 0 0-.335.123L4.273 8.234.687 7.11C.29 6.992.102 6.816.125 6.582c.023-.234.27-.445.738-.633L14.82.57c.352-.117.633-.076.844.123.211.2.27.545.176 1.037z"/>
    </g>
</svg>
