<svg xmlns="http://www.w3.org/2000/svg" width="16" height="17" viewBox="0 0 16 17">
    <g fill="none" fill-rule="evenodd">
        <path d="M-7-7h30v30H-7z"/>
        <path fill="#FFF" d="M14.75.375c.305 0 .568.111.791.334.223.223.334.486.334.791V15c0 .305-.111.568-.334.791a1.081 1.081 0 0 1-.791.334H1.25c-.305 0-.568-.111-.791-.334A1.081 1.081 0 0 1 .125 15V1.5c0-.305.111-.568.334-.791C.682.486.945.375 1.25.375h13.5zm-12.2 13.5h2.356V6.352H2.551v7.523zm1.16-8.543c.376 0 .698-.135.968-.404a1.3 1.3 0 0 0 .404-.95 1.3 1.3 0 0 0-.404-.949 1.32 1.32 0 0 0-.967-.404c-.375 0-.691.135-.95.404-.257.27-.386.586-.386.95 0 .363.129.68.387.949.258.27.574.404.949.404zm9.915 8.543V9.762c0-1.172-.164-2.028-.492-2.567-.446-.68-1.207-1.02-2.285-1.02-.54 0-1.02.13-1.442.388-.351.21-.61.48-.773.808h-.035v-1.02h-2.25v7.524h2.32v-3.727c0-.585.082-1.03.246-1.335.234-.399.621-.598 1.16-.598.54 0 .89.223 1.055.668.117.281.176.726.176 1.336v3.656h2.32z"/>
    </g>
</svg>
