<svg xmlns="http://www.w3.org/2000/svg" width="60" height="60" viewBox="0 0 60 60">
    <g fill="none" fill-rule="nonzero">
        <g fill="#BEC2E3">
            <path d="M11.739 1.304h26.087V11.74H11.739zM14.348 22.174L18.26 30l-3.913 7.826-7.826-4.696v-6.26z"/>
        </g>
        <path fill="#3E46AD" d="M56.087 20.87h-6.522V2.609A2.611 2.611 0 0 0 46.957 0H2.609A2.611 2.611 0 0 0 0 2.609v18.26a1.305 1.305 0 0 0 2.609 0v-7.826h44.348v7.827h-32.61c-.015 0-.03.005-.045.006-.036.001-.072.01-.11.014a1.327 1.327 0 0 0-.36.098c-.022.01-.046.008-.067.019-.012.006-.018.016-.03.023-.018.01-.04.014-.058.025L5.851 25.75.634 28.88a1.305 1.305 0 0 0-.001 2.238l5.217 3.13 7.826 4.696c.018.01.04.014.057.025.012.006.019.018.03.023.051.026.105.04.158.058.034.011.067.027.102.036.107.027.217.044.324.044h32.608v7.827H39.13a2.611 2.611 0 0 0-2.609 2.608v7.826H2.61v-5.217H30a1.305 1.305 0 0 0 0-2.609H2.609V39.13a1.305 1.305 0 0 0-2.609 0v18.261A2.611 2.611 0 0 0 2.609 60h37.826a1.317 1.317 0 0 0 .922-.382l7.825-7.825a1.317 1.317 0 0 0 .383-.923V39.13h6.522A3.918 3.918 0 0 0 60 35.217V24.783a3.918 3.918 0 0 0-3.913-3.913zM36.522 2.609v7.826H13.043V2.609h23.479zm-33.913 0h7.826v7.826H2.609V2.609zm36.521 7.826V2.609h7.827v7.826H39.13zm0 39.13h7.827v.765l-7.062 7.061h-.765v-7.826zm7.827-20.87h-27.89l-2.609-5.217h30.499v5.218zm-41.74.478v1.653L3.84 30l1.377-.827zm2.61-1.564l5.983-3.59L16.803 30l-2.991 5.983-5.986-3.592v-4.782zm8.631 8.913l2.609-5.218h27.89v5.218H16.458zm40.933-1.305c0 .72-.585 1.305-1.304 1.305h-6.522V23.478h6.522c.719 0 1.304.586 1.304 1.305v10.434z"/>
    </g>
</svg>
