<svg xmlns="http://www.w3.org/2000/svg" width="18" height="18" viewBox="0 0 18 18">
    <g fill="none" fill-rule="evenodd">
        <path d="M-6-6h30v30H-6z"/>
        <path fill="#FFF" d="M6.117 14.207c0 .094-.064.147-.193.158-.13.012-.194-.03-.194-.123 0-.094.059-.14.176-.14.07 0 .123.011.158.035.036.023.053.047.053.07zm-1.09-.14c.024-.094.094-.124.211-.088.117.035.17.082.158.14a.164.164 0 0 1-.087.123.15.15 0 0 1-.141 0 .47.47 0 0 1-.123-.088c-.035-.035-.041-.064-.018-.088zm1.547-.07c.117 0 .182.034.194.105.011.07-.041.128-.159.175a.39.39 0 0 1-.123-.017c-.035-.012-.058-.053-.07-.123-.012-.07.041-.117.158-.14zM8.894.53a9.02 9.02 0 0 1 4.43 1.125c1.36.75 2.426 1.77 3.2 3.059.796 1.336 1.195 2.8 1.195 4.394 0 1.946-.545 3.686-1.635 5.221-1.09 1.535-2.514 2.596-4.272 3.182-.187.047-.334.023-.439-.07a.45.45 0 0 1-.158-.352v-2.953c0-.75-.2-1.29-.598-1.617.867-.094 1.512-.211 1.934-.352.656-.234 1.16-.586 1.511-1.055.399-.61.598-1.441.598-2.496 0-.445-.082-.832-.246-1.16-.117-.234-.34-.527-.668-.879.094-.234.152-.515.176-.844a3.964 3.964 0 0 0-.246-1.546c-.235-.07-.563-.024-.985.14-.28.117-.609.281-.984.492l-.457.317a7.967 7.967 0 0 0-2.232-.317c-.762 0-1.495.106-2.198.317l-.457-.317a7.905 7.905 0 0 0-1.02-.492c-.421-.164-.738-.21-.948-.14a3.259 3.259 0 0 0-.247 1.546c0 .329.047.598.141.809a4.495 4.495 0 0 0-.615.967c-.13.293-.194.662-.194 1.107 0 1.055.188 1.875.563 2.461.328.492.82.856 1.477 1.09.421.14 1.054.258 1.898.352-.305.28-.492.68-.563 1.195-.398.187-.785.258-1.16.21-.61-.046-1.078-.362-1.406-.948a1.83 1.83 0 0 0-.562-.633 3.629 3.629 0 0 0-.528-.246l-.246-.035c-.258 0-.392.04-.404.123-.012.082.04.17.158.263l.176.14c.164.095.328.247.492.458.14.164.258.351.352.562l.14.282c.117.351.34.62.668.808.281.164.621.27 1.02.317.28.023.574.011.879-.036l.386-.035.035 2.145a.45.45 0 0 1-.158.351c-.105.094-.252.118-.44.07-1.78-.585-3.222-1.646-4.323-3.18C.832 12.794.28 11.054.28 9.108c0-1.593.375-3.046 1.125-4.359A8.17 8.17 0 0 1 4.5 1.656C5.812.906 7.277.531 8.895.531zm-5.203 12.13c.047-.048.106-.036.176.034.07.07.082.13.035.176-.047.047-.105.035-.175-.035-.07-.07-.082-.129-.036-.176zm-.386-.282c.047-.047.105-.053.175-.018.07.035.094.082.07.141-.023.059-.075.064-.157.018-.082-.047-.112-.094-.088-.141zm1.16 1.23c.023-.023.058-.029.105-.017a.26.26 0 0 1 .123.07.26.26 0 0 1 .07.123c.012.047.007.082-.017.106-.07.07-.152.058-.246-.036-.047-.046-.07-.093-.07-.14 0-.047.011-.082.035-.106zm-.422-.492c.047-.023.088-.03.123-.017.035.011.064.04.088.088.07.093.07.164 0 .21-.024.024-.053.024-.088 0a1.15 1.15 0 0 0-.123-.07c-.047-.117-.047-.187 0-.21z"/>
    </g>
</svg>
