<svg xmlns="http://www.w3.org/2000/svg" width="39" height="60" viewBox="0 0 39 60">
    <g fill="none" fill-rule="nonzero">
        <g class="svg_fill_light">
            <path d="M6.5 1.304h26v15.652h-26zM27.3 35.217l-7.8 14.348-7.8-14.348a12.96 12.96 0 0 0 15.6 0z"/>
        </g>
        <path class="svg_fill_dark" d="M33.8 16.957V2.609h3.9c.719 0 1.3-.585 1.3-1.305S38.419 0 37.7 0H1.3C.581 0 0 .584 0 1.304c0 .72.581 1.305 1.3 1.305h3.9v22.174c0 3.57 1.3 6.904 3.613 9.507C3.756 35.585 0 40.18 0 45.652v11.74A2.607 2.607 0 0 0 2.6 60h33.8c1.434 0 2.6-1.17 2.6-2.609V45.652c0-5.472-3.756-10.067-8.811-11.362a14.242 14.242 0 0 0 3.611-9.507v-7.826zM31.2 2.609v13.043H7.8V2.61h23.4zM19.5 46.842l-4.607-8.475c1.47.501 3.018.763 4.607.763a14.22 14.22 0 0 0 4.607-.764L19.5 46.842zm-16.9-1.19c0-4.779 3.679-8.713 8.345-9.099L18.2 49.898v7.493h-7.8v-7.826c0-.72-.581-1.304-1.3-1.304-.719 0-1.3.584-1.3 1.304v7.826H2.6V45.652zm33.8 0v11.74h-5.2v-7.827c0-.72-.581-1.304-1.3-1.304-.719 0-1.3.584-1.3 1.304v7.826h-7.8v-7.493l7.255-13.345c4.666.386 8.345 4.32 8.345 9.1zm-5.2-20.87c0 3.722-1.707 7.145-4.68 9.39a11.601 11.601 0 0 1-7.02 2.35c-2.548 0-4.975-.813-7.017-2.347C9.507 31.927 7.8 28.504 7.8 24.783V18.26h23.4v6.522z"/>
    </g>
</svg>
