<svg xmlns="http://www.w3.org/2000/svg" width="18" height="14" viewBox="0 0 18 14">
    <g fill="none" fill-rule="evenodd">
        <path d="M-6-8h30v30H-6z"/>
        <path fill="#FFF" d="M2.531 3.242a.774.774 0 0 0-.246-.562L.703.78V.5H5.66l3.797 8.367L12.797.5h4.71v.281l-1.37 1.301c-.118.094-.164.223-.14.387v9.562c-.024.164.022.293.14.387l1.336 1.3V14h-6.68v-.281l1.371-1.336a.517.517 0 0 0 .123-.158.91.91 0 0 0 .018-.229V4.262l-3.797 9.703H7.98L3.516 4.262v6.504a.95.95 0 0 0 .246.738l1.793 2.18v.28H.492v-.28l1.793-2.18a.806.806 0 0 0 .246-.738V3.242z"/>
    </g>
</svg>
