<svg xmlns="http://www.w3.org/2000/svg" width="60" height="60" viewBox="0 0 60 60">
    <g fill="none" fill-rule="nonzero">
        <path fill="#C3EFEA" d="M30 30h28.696c0 15.848-12.848 28.696-28.696 28.696a28.606 28.606 0 0 1-20.296-8.4L30 30z"/>
        <path fill="#37CAB9" d="M30 0C13.457 0 0 13.458 0 30c0 8.02 3.12 15.556 8.782 21.218C14.444 56.88 21.981 60 30 60c16.543 0 30-13.458 30-30S46.543 0 30 0zm27.325 28.696h-26.02V2.676c14.06.666 25.353 11.959 26.02 26.02zm-28.63-26.02V29.46L9.75 48.407C5.153 43.357 2.609 36.884 2.609 30c0-14.663 11.591-26.637 26.087-27.325zM30 57.39c-6.884 0-13.357-2.543-18.406-7.14L30.54 31.304h26.785C56.637 45.801 44.663 57.391 30 57.391z"/>
    </g>
</svg>
