<svg xmlns="http://www.w3.org/2000/svg" width="60" height="60" viewBox="0 0 60 60">
    <g fill="none" fill-rule="nonzero">
        <path fill="#EBE6E5" d="M30 1.304c15.848 0 28.696 12.848 28.696 28.696S45.848 58.696 30 58.696 1.304 45.848 1.304 30 14.152 1.304 30 1.304zM48.26 30c0-10.083-8.177-18.26-18.26-18.26-10.083 0-18.26 8.177-18.26 18.26 0 10.083 8.177 18.26 18.26 18.26 10.083 0 18.26-8.177 18.26-18.26z"/>
        <g fill="#B5ACAA">
            <path d="M30 0C13.458 0 0 13.458 0 30s13.458 30 30 30 30-13.458 30-30S46.542 0 30 0zm0 57.391C14.896 57.391 2.609 45.104 2.609 30 2.609 14.896 14.896 2.609 30 2.609c15.104 0 27.391 12.287 27.391 27.391 0 15.104-12.287 27.391-27.391 27.391z"/>
            <path d="M30 10.435c-10.788 0-19.565 8.777-19.565 19.565 0 10.788 8.777 19.565 19.565 19.565 10.788 0 19.565-8.777 19.565-19.565 0-10.788-8.777-19.565-19.565-19.565zm16.89 18.26H31.304V13.11c8.309.637 14.95 7.277 15.586 15.586zM30 46.958c-9.35 0-16.957-7.607-16.957-16.957 0-8.91 6.912-16.22 15.653-16.89V30c0 .72.584 1.304 1.304 1.304h16.89c-.67 8.74-7.98 15.653-16.89 15.653z"/>
        </g>
    </g>
</svg>
