<?xml version="1.0" encoding="utf-8"?>
<!-- Generator: Adobe Illustrator 22.1.0, SVG Export Plug-In . SVG Version: 6.00 Build 0)  -->
<svg version="1.1" id="Layer_1" xmlns="http://www.w3.org/2000/svg" xmlns:xlink="http://www.w3.org/1999/xlink" x="0px" y="0px"
	 viewBox="0 0 8192 1081" style="enable-background:new 0 0 8192 1081;" xml:space="preserve">
<style type="text/css">
	.st0{fill:#F2F2F2;}
</style>
<g>
	<path class="st0" d="M625.5,1081c-63.8,0-113-18.1-147.5-54.4c-34.5-36.3-51.8-86.3-51.8-150V464.2h-74.9c-9.6,0-17.9-3.1-24.9-9.4
		c-6.9-6.2-10.4-15.6-10.4-28.1v-70.5l118.8-19.4l37.5-201.6c1.8-9.6,6.3-17,13.3-22.3c6.9-5.3,15.7-7.9,26.3-7.9h92.1v232.5h194.3
		v126.7H603.9v400.1c0,23,5.8,41,17.3,54c11.5,12.9,26.9,19.4,46.1,19.4c11,0,20.3-1.3,27.7-3.9c7.4-2.6,13.9-5.4,19.4-8.3
		c5.5-2.9,10.4-5.6,14.8-8.3c4.3-2.6,8.6-3.9,12.9-3.9c5.3,0,9.6,1.3,12.9,3.9c3.4,2.6,6.9,6.6,10.7,11.9l53.3,86.3
		c-25.9,21.6-55.7,38-89.2,49C696.2,1075.5,661.4,1081,625.5,1081z"/>
	<path class="st0" d="M1255.3,314.7c55.1,0,105.2,8.9,150,26.7c44.8,17.7,83.1,42.9,114.8,75.6c31.7,32.6,56.2,72.4,73.5,119.5
		c17.2,47,25.9,99.5,25.9,157.6c0,58.5-8.7,111.3-25.9,158.3c-17.3,47-41.8,87.1-73.5,120.2c-31.7,33.1-69.9,58.6-114.8,76.3
		c-44.8,17.7-94.9,26.6-150,26.6s-105.3-8.8-150.4-26.6s-83.6-43.2-115.5-76.3c-31.9-33.1-56.7-73.2-74.1-120.2
		c-17.5-47-26.3-99.8-26.3-158.3c0-58.1,8.7-110.6,26.3-157.6s42.2-86.8,74.1-119.5c31.9-32.6,70.4-57.8,115.5-75.6
		C1149.9,323.6,1200.1,314.7,1255.3,314.7z M1255.3,938.7c61.4,0,106.9-20.7,136.4-61.9c29.5-41.3,44.2-101.7,44.2-181.4
		c0-79.6-14.7-140.4-44.2-182.1c-29.5-41.7-75-62.6-136.4-62.6c-62.4,0-108.4,21.1-138.2,63c-29.7,41.9-44.6,102.6-44.6,181.7
		c0,79.2,14.9,139.5,44.6,181.1C1146.9,917.9,1192.9,938.7,1255.3,938.7z"/>
	<path class="st0" d="M2000.9,1081c-63.8,0-113-18.1-147.5-54.4c-34.5-36.3-51.8-86.3-51.8-150V464.2h-74.9
		c-9.6,0-17.9-3.1-24.9-9.4c-6.9-6.2-10.4-15.6-10.4-28.1v-70.5l118.8-19.4l37.5-201.6c1.8-9.6,6.3-17,13.3-22.3
		c6.9-5.3,15.7-7.9,26.3-7.9h92.1v232.5h194.3v126.7h-194.3v400.1c0,23,5.8,41,17.3,54c11.5,12.9,26.9,19.4,46.1,19.4
		c11,0,20.3-1.3,27.7-3.9c7.4-2.6,13.9-5.4,19.4-8.3c5.5-2.9,10.4-5.6,14.8-8.3c4.3-2.6,8.6-3.9,12.9-3.9c5.3,0,9.6,1.3,12.9,3.9
		c3.3,2.6,6.9,6.6,10.7,11.9l53.3,86.3c-25.9,21.6-55.7,38-89.2,49C2071.6,1075.5,2036.9,1081,2000.9,1081z"/>
	<path class="st0" d="M3431,1069.5V331.1h108.7c23,0,38.1,10.7,45.4,32.3l11.5,54.7c12.9-14.3,26.5-27.6,40.7-39.5
		c14.1-12,29.2-22.3,45.4-31c16.1-8.6,33.3-15.5,51.8-20.5c18.5-5,38.8-7.6,60.9-7.6c46.5,0,84.8,12.6,114.8,37.8
		c30,25.2,52.4,58.6,67.3,100.4c11.5-24.5,25.9-45.5,43.2-63c17.3-17.5,36.2-31.8,56.9-42.8c20.6-11,42.6-19.2,65.8-24.5
		c23.2-5.3,46.7-7.9,70.2-7.9c40.8,0,77,6.2,108.7,18.7c31.6,12.5,58.3,30.7,79.9,54.7c21.6,24,38,53.3,49.3,87.8
		c11.3,34.5,16.9,74.1,16.9,118.8v470h-177.8v-470c0-47-10.3-82.4-30.9-106.2c-20.7-23.7-50.9-35.6-90.8-35.6
		c-18.2,0-35.2,3.1-50.7,9.4c-15.6,6.3-29.3,15.2-41,27c-11.7,11.8-21,26.5-27.7,44.2c-6.7,17.8-10.1,38.2-10.1,61.2v470h-178.5
		v-470c0-49.4-10-85.4-29.9-107.9s-49.3-33.9-88.1-33.9c-25.5,0-49.3,6.4-71.6,19.1c-22.3,12.7-43.1,30.1-62.3,52.2v540.5
		L3431,1069.5L3431,1069.5z"/>
	<path class="st0" d="M4830.9,331.1h141c13.5,0,24.7,3.1,33.9,9.3c9.1,6.3,14.9,14.2,17.3,23.8l105.8,394.4
		c5.8,21.6,10.4,42.7,14.1,63.3c3.6,20.6,7.1,41.3,10.4,61.9c5.3-20.6,10.9-41.3,16.9-61.9s12.4-41.8,19-63.3l122.3-395.9
		c2.9-9.6,8.7-17.5,17.3-23.7c8.7-6.3,18.8-9.4,30.2-9.4h78.5c12.9,0,23.7,3.1,32.4,9.4c8.6,6.2,14.4,14.1,17.3,23.7l120.9,403.1
		c6.2,20.7,11.9,40.7,16.9,60.1c5,19.4,10,39,14.8,58.6c3.4-20.6,7.1-41.3,11.1-61.9c4.1-20.6,9.2-42,15.5-64l109.4-394.4
		c2.4-9.6,8.1-17.5,17.3-23.8c9.1-6.2,19.7-9.3,31.7-9.3h134.6l-233.9,738.4h-143.2c-15.4,0-26.4-10.5-33.1-31.7l-133.1-426.7
		c-4.3-13.9-8.3-28-11.9-42.1c-3.6-14.2-6.6-28.2-9-42.1c-2.9,14.4-6,28.7-9.4,42.8c-3.4,14.2-7.2,28.4-11.5,42.8l-134.5,425.3
		c-6.7,21.2-19.7,31.7-38.9,31.7h-136L4830.9,331.1z"/>
	<path class="st0" d="M6275.3,115.8c0,15.4-3.1,29.7-9.3,43.2c-6.3,13.4-14.5,25.2-24.9,35.3c-10.4,10.1-22.5,18.1-36.4,24.1
		c-13.9,6-28.8,9-44.6,9c-15.3,0-29.9-3-43.5-9c-13.7-6-25.5-14-35.6-24.1c-10.1-10.1-18.1-21.8-24.1-35.3c-6-13.5-9-27.8-9-43.2
		c0-15.8,3-30.7,9-44.6c6-13.9,14.1-25.9,24.1-36c10.1-10.1,21.9-18.1,35.6-24.1c13.7-6,28.2-9,43.5-9c15.9,0,30.7,3,44.6,9
		c13.9,6,26,14.1,36.4,24.1c10.3,10.1,18.6,22.1,24.9,36C6272.3,85.1,6275.3,100,6275.3,115.8z M6248.8,331.1v738.4H6071V331.1
		H6248.8z"/>
	<path class="st0" d="M6969.2,1069.5c-23,0-38.1-10.7-45.4-32.4l-14.4-71.2c-15.3,17.2-31.5,32.9-48.2,46.8
		c-16.8,13.9-34.9,25.9-54.4,36c-19.4,10.1-40.3,17.9-62.6,23.3c-22.3,5.5-46.5,8.3-72.3,8.3c-40.3,0-77.3-8.4-110.8-25.2
		c-33.6-16.7-62.5-41.1-86.7-73.1c-24.2-31.9-42.9-71.3-56.2-118.4c-13.2-47-19.8-100.8-19.8-161.2c0-54.7,7.4-105.5,22.3-152.6
		c14.9-47,36.3-87.8,64.1-122.3c27.8-34.5,61.2-61.6,100.1-81c38.9-19.4,82.5-29.2,131-29.2c41.3,0,76.5,6.6,105.8,19.8
		c29.2,13.2,55.4,30.8,78.4,52.9V0h177.8v1069.5L6969.2,1069.5L6969.2,1069.5z M6732.4,939.2c37,0,68.4-7.7,94.3-23
		c25.9-15.3,50.4-37.2,73.4-65.6V519.6c-20.2-24.5-42.1-41.8-65.8-51.8c-23.8-10.1-49.3-15.1-76.6-15.1c-26.9,0-51.2,5-73.1,15.1
		c-21.8,10.1-40.3,25.3-55.4,45.7c-15.1,20.4-26.8,46.2-34.9,77.7c-8.1,31.4-12.3,68.5-12.3,111.2c0,43.2,3.5,79.8,10.4,109.8
		c6.9,30,16.9,54.5,29.9,73.4c12.9,19,28.8,32.7,47.5,41C6688.5,935,6709.4,939.2,6732.4,939.2z"/>
	<path class="st0" d="M7575.2,319.5c46.6,0,89.4,7.4,128.5,22.3c39.1,14.9,72.8,36.6,101.1,65.1c28.3,28.5,50.4,63.5,66.2,105.1
		c15.9,41.5,23.8,88.9,23.8,142.2c0,13.4-0.6,24.6-1.8,33.4c-1.2,8.9-3.4,15.9-6.4,20.9c-3.1,5-7.3,8.6-12.6,10.7
		c-5.3,2.2-12,3.2-20.2,3.2h-456.4c5.3,75.9,25.6,131.5,61.1,167c35.6,35.5,82.5,53.2,141.1,53.2c28.8,0,53.6-3.4,74.5-10.1
		c20.8-6.7,39.1-14.1,54.7-22.3c15.6-8.1,29.2-15.6,41-22.3c11.8-6.7,23.1-10.1,34.2-10.1c7.2,0,13.4,1.5,18.7,4.3
		c5.3,2.9,9.9,6.9,13.7,12.3l51.8,64.8c-19.7,23-41.7,42.3-66.2,57.9c-24.5,15.6-50,28.1-76.6,37.5c-26.6,9.4-53.7,16-81.3,19.8
		c-27.6,3.8-54.4,5.8-80.2,5.8c-51.3,0-99.1-8.5-143.3-25.5c-44.2-17-82.5-42.2-115.2-75.6s-58.3-74.6-77-123.8
		c-18.7-49.2-28-106.2-28-170.9c0-50.4,8.1-97.8,24.5-142.2c16.3-44.4,39.7-83,70.2-115.8c30.5-32.9,67.6-58.9,111.6-78.2
		C7470.5,329.1,7520.1,319.5,7575.2,319.5z M7578.9,446.9c-51.8,0-92.4,14.7-121.7,43.9c-29.3,29.3-48,70.8-56.2,124.5h334
		c0-23-3.1-44.7-9.4-65.1c-6.2-20.4-15.8-38.2-28.8-53.6c-12.9-15.3-29.3-27.5-49-36.4C7628.3,451.4,7605.2,446.9,7578.9,446.9z"/>
	<path class="st0" d="M3222,476.2h-853.8c-44.4,0-80.8-36.3-80.8-80.8l0,0c0-44.4,36.3-80.8,80.8-80.8H3222
		c44.4,0,80.8,36.3,80.8,80.8l0,0C3302.8,439.8,3266.4,476.2,3222,476.2z"/>
	<path class="st0" d="M3222,775.8h-853.8c-44.4,0-80.8-36.3-80.8-80.8l0,0c0-44.4,36.3-80.8,80.8-80.8H3222
		c44.4,0,80.8,36.3,80.8,80.8l0,0C3302.8,739.5,3266.4,775.8,3222,775.8z"/>
	<path class="st0" d="M3222,1075.4h-853.8c-44.4,0-80.8-36.3-80.8-80.8l0,0c0-44.4,36.3-80.8,80.8-80.8H3222
		c44.4,0,80.8,36.3,80.8,80.8l0,0C3302.8,1039.1,3266.4,1075.4,3222,1075.4z"/>
</g>
</svg>
